<mxfile host="app.diagrams.net" modified="2021-02-19T20:46:56.099Z" agent="5.0 (Windows NT 10.0; Win64; x64) AppleWebKit/537.36 (KHTML, like Gecko) Chrome/88.0.4324.182 Safari/537.36" etag="N0i9OE-Xdh43eEjfc-eg" version="14.2.9" type="github">
  <diagram id="cog-l0Yxrh7_ed3xdmKw" name="Page-1">
    <mxGraphModel dx="1021" dy="614" grid="1" gridSize="10" guides="1" tooltips="1" connect="1" arrows="1" fold="1" page="1" pageScale="1" pageWidth="827" pageHeight="1169" math="0" shadow="0">
      <root>
        <mxCell id="0" />
        <mxCell id="1" parent="0" />
        <mxCell id="z94WS6gcPtJ9C5WA1-7h-24" value="" style="ellipse;whiteSpace=wrap;html=1;" vertex="1" parent="1">
          <mxGeometry x="187" y="20" width="640" height="530" as="geometry" />
        </mxCell>
        <mxCell id="z94WS6gcPtJ9C5WA1-7h-16" style="edgeStyle=orthogonalEdgeStyle;rounded=0;orthogonalLoop=1;jettySize=auto;html=1;endArrow=none;endFill=0;" edge="1" parent="1" source="z94WS6gcPtJ9C5WA1-7h-1" target="z94WS6gcPtJ9C5WA1-7h-9">
          <mxGeometry relative="1" as="geometry" />
        </mxCell>
        <mxCell id="z94WS6gcPtJ9C5WA1-7h-19" style="edgeStyle=orthogonalEdgeStyle;rounded=0;orthogonalLoop=1;jettySize=auto;html=1;entryX=1;entryY=0.5;entryDx=0;entryDy=0;entryPerimeter=0;endArrow=none;endFill=0;" edge="1" parent="1" source="z94WS6gcPtJ9C5WA1-7h-20" target="z94WS6gcPtJ9C5WA1-7h-17">
          <mxGeometry relative="1" as="geometry" />
        </mxCell>
        <mxCell id="z94WS6gcPtJ9C5WA1-7h-1" value="" style="shape=mxgraph.cisco.routers.router;html=1;pointerEvents=1;dashed=0;fillColor=#036897;strokeColor=#ffffff;strokeWidth=2;verticalLabelPosition=bottom;verticalAlign=top;align=center;outlineConnect=0;" vertex="1" parent="1">
          <mxGeometry x="348" y="130" width="78" height="53" as="geometry" />
        </mxCell>
        <mxCell id="z94WS6gcPtJ9C5WA1-7h-2" value="CISCO FALCON" style="text;html=1;strokeColor=none;fillColor=none;align=center;verticalAlign=middle;whiteSpace=wrap;rounded=0;" vertex="1" parent="1">
          <mxGeometry x="367" y="100" width="40" height="20" as="geometry" />
        </mxCell>
        <mxCell id="z94WS6gcPtJ9C5WA1-7h-3" value="GE:0/0/0&lt;br&gt;IP: 114.1.0.1/24&amp;nbsp;" style="text;html=1;strokeColor=none;fillColor=none;align=center;verticalAlign=middle;whiteSpace=wrap;rounded=0;" vertex="1" parent="1">
          <mxGeometry x="420" y="120" width="132" height="29" as="geometry" />
        </mxCell>
        <mxCell id="z94WS6gcPtJ9C5WA1-7h-4" value="GE:0/0/1&lt;br&gt;IP:&amp;nbsp;&lt;span class=&quot;fontstyle0&quot;&gt;10.50.114.1&lt;/span&gt;/24&amp;nbsp;" style="text;html=1;strokeColor=none;fillColor=none;align=center;verticalAlign=middle;whiteSpace=wrap;rounded=0;" vertex="1" parent="1">
          <mxGeometry x="250" y="120" width="98" height="29" as="geometry" />
        </mxCell>
        <mxCell id="z94WS6gcPtJ9C5WA1-7h-5" style="edgeStyle=none;rounded=0;orthogonalLoop=1;jettySize=auto;html=1;entryX=0.5;entryY=1;entryDx=0;entryDy=0;entryPerimeter=0;endArrow=none;endFill=0;" edge="1" parent="1" source="z94WS6gcPtJ9C5WA1-7h-6" target="z94WS6gcPtJ9C5WA1-7h-1">
          <mxGeometry relative="1" as="geometry" />
        </mxCell>
        <mxCell id="z94WS6gcPtJ9C5WA1-7h-6" value="NAT&lt;br&gt;&lt;div&gt;&lt;div&gt;10.50.114.11 → 114.1.0.17&lt;/div&gt;&lt;div&gt;10.50.114.12 → 114.1.0.18&lt;/div&gt;&lt;/div&gt;" style="text;html=1;strokeColor=none;fillColor=none;align=center;verticalAlign=middle;whiteSpace=wrap;rounded=0;" vertex="1" parent="1">
          <mxGeometry x="296.5" y="220" width="181" height="50" as="geometry" />
        </mxCell>
        <mxCell id="z94WS6gcPtJ9C5WA1-7h-7" style="edgeStyle=orthogonalEdgeStyle;rounded=0;orthogonalLoop=1;jettySize=auto;html=1;endArrow=none;endFill=0;" edge="1" parent="1" source="z94WS6gcPtJ9C5WA1-7h-9" target="z94WS6gcPtJ9C5WA1-7h-11">
          <mxGeometry relative="1" as="geometry" />
        </mxCell>
        <mxCell id="z94WS6gcPtJ9C5WA1-7h-8" style="edgeStyle=orthogonalEdgeStyle;rounded=0;orthogonalLoop=1;jettySize=auto;html=1;endArrow=none;endFill=0;" edge="1" parent="1" source="z94WS6gcPtJ9C5WA1-7h-9" target="z94WS6gcPtJ9C5WA1-7h-12">
          <mxGeometry relative="1" as="geometry">
            <Array as="points">
              <mxPoint x="660" y="241" />
              <mxPoint x="720" y="241" />
            </Array>
          </mxGeometry>
        </mxCell>
        <mxCell id="z94WS6gcPtJ9C5WA1-7h-9" value="" style="shape=mxgraph.cisco.switches.workgroup_switch;html=1;pointerEvents=1;dashed=0;fillColor=#036897;strokeColor=#ffffff;strokeWidth=2;verticalLabelPosition=bottom;verticalAlign=top;align=center;outlineConnect=0;" vertex="1" parent="1">
          <mxGeometry x="590" y="131.5" width="101" height="50" as="geometry" />
        </mxCell>
        <mxCell id="z94WS6gcPtJ9C5WA1-7h-10" value="SWITCH&amp;nbsp; Subestación en Agua Fría" style="text;html=1;strokeColor=none;fillColor=none;align=center;verticalAlign=middle;whiteSpace=wrap;rounded=0;" vertex="1" parent="1">
          <mxGeometry x="580" y="100" width="130" height="20" as="geometry" />
        </mxCell>
        <mxCell id="z94WS6gcPtJ9C5WA1-7h-11" value="" style="outlineConnect=0;dashed=0;verticalLabelPosition=bottom;verticalAlign=top;align=center;html=1;shape=mxgraph.aws3.lightbulb;fillColor=#5294CF;gradientColor=none;" vertex="1" parent="1">
          <mxGeometry x="552" y="300" width="79.5" height="79.5" as="geometry" />
        </mxCell>
        <mxCell id="z94WS6gcPtJ9C5WA1-7h-12" value="" style="outlineConnect=0;dashed=0;verticalLabelPosition=bottom;verticalAlign=top;align=center;html=1;shape=mxgraph.aws3.lightbulb;fillColor=#5294CF;gradientColor=none;" vertex="1" parent="1">
          <mxGeometry x="680" y="300" width="79.5" height="79.5" as="geometry" />
        </mxCell>
        <mxCell id="z94WS6gcPtJ9C5WA1-7h-14" value="IP: 114.1.0.17/24&lt;br&gt;Gateway: Ninguno" style="text;html=1;strokeColor=none;fillColor=none;align=center;verticalAlign=middle;whiteSpace=wrap;rounded=0;" vertex="1" parent="1">
          <mxGeometry x="525.75" y="390" width="132" height="29" as="geometry" />
        </mxCell>
        <mxCell id="z94WS6gcPtJ9C5WA1-7h-15" value="IP: 114.1.0.18/24&lt;br&gt;Gateway: Ninguno" style="text;html=1;strokeColor=none;fillColor=none;align=center;verticalAlign=middle;whiteSpace=wrap;rounded=0;" vertex="1" parent="1">
          <mxGeometry x="657.75" y="390" width="132" height="29" as="geometry" />
        </mxCell>
        <mxCell id="z94WS6gcPtJ9C5WA1-7h-17" value="" style="shape=mxgraph.cisco.misc.6700_series;html=1;pointerEvents=1;dashed=0;fillColor=#036897;strokeColor=#ffffff;strokeWidth=2;verticalLabelPosition=bottom;verticalAlign=top;align=center;outlineConnect=0;" vertex="1" parent="1">
          <mxGeometry x="20" y="124.5" width="64" height="64" as="geometry" />
        </mxCell>
        <mxCell id="z94WS6gcPtJ9C5WA1-7h-18" value="RTU ENEE" style="text;html=1;strokeColor=none;fillColor=none;align=center;verticalAlign=middle;whiteSpace=wrap;rounded=0;" vertex="1" parent="1">
          <mxGeometry x="32" y="90" width="40" height="20" as="geometry" />
        </mxCell>
        <mxCell id="z94WS6gcPtJ9C5WA1-7h-20" value="?" style="ellipse;shape=cloud;whiteSpace=wrap;html=1;" vertex="1" parent="1">
          <mxGeometry x="120" y="116.5" width="90" height="80" as="geometry" />
        </mxCell>
        <mxCell id="z94WS6gcPtJ9C5WA1-7h-21" style="edgeStyle=orthogonalEdgeStyle;rounded=0;orthogonalLoop=1;jettySize=auto;html=1;entryX=1;entryY=0.5;entryDx=0;entryDy=0;entryPerimeter=0;endArrow=none;endFill=0;" edge="1" parent="1" source="z94WS6gcPtJ9C5WA1-7h-1" target="z94WS6gcPtJ9C5WA1-7h-20">
          <mxGeometry relative="1" as="geometry">
            <mxPoint x="348" y="156.5" as="sourcePoint" />
            <mxPoint x="84" y="156.5" as="targetPoint" />
          </mxGeometry>
        </mxCell>
        <mxCell id="z94WS6gcPtJ9C5WA1-7h-22" value="" style="shape=mxgraph.cisco.buildings.small_business;html=1;pointerEvents=1;dashed=0;fillColor=#036897;strokeColor=#ffffff;strokeWidth=2;verticalLabelPosition=bottom;verticalAlign=top;align=center;outlineConnect=0;" vertex="1" parent="1">
          <mxGeometry x="345.88" y="400" width="98" height="54" as="geometry" />
        </mxCell>
        <mxCell id="z94WS6gcPtJ9C5WA1-7h-23" value="Subestación Agua Fría" style="text;html=1;strokeColor=none;fillColor=none;align=center;verticalAlign=middle;whiteSpace=wrap;rounded=0;" vertex="1" parent="1">
          <mxGeometry x="363.75" y="364" width="62.25" height="26" as="geometry" />
        </mxCell>
      </root>
    </mxGraphModel>
  </diagram>
</mxfile>
